<svg width="69" height="15" viewBox="0 0 69 15" fill="none" xmlns="http://www.w3.org/2000/svg">
<path d="M3.60156 0V14.3984H0V0H3.60156ZM9.05094 5.39844H19.8478V14.3984H5.44938V10.7969H16.2463V9H5.44938V0H19.8478V3.60156H9.05094V5.39844ZM36.2347 3.60156H27.9769L36.2347 11.8516V14.3984H33.6956L25.4378 6.14062V14.3984H21.8363V0H36.2347V3.60156ZM52.3247 3.60156H41.5278V14.3984H37.9263V0H52.3247V3.60156ZM53.6569 0H68.0553V14.3984H53.6569V10.7969L64.4538 3.60156H53.6569V0ZM64.4538 7.19531L59.0553 10.7969H64.4538V7.19531Z" fill="white"/>
</svg>
